<svg width="1140" height="362" viewBox="0 0 1140 362" fill="none" xmlns="http://www.w3.org/2000/svg">
<rect width="1140" height="362" rx="10" fill="#002D8E"/>
<mask id="mask0_323_4014" style="mask-type:alpha" maskUnits="userSpaceOnUse" x="0" y="0" width="1140" height="362">
<rect x="0.000976562" width="1140" height="362" rx="10" fill="#002D8E" fill-opacity="0.18"/>
</mask>
<g mask="url(#mask0_323_4014)">
<path d="M-125.5 84.0355C-117.347 91.0714 -25.8481 131.002 -7.07894 93.3923C16.3825 46.38 196.169 -107.148 299 -11.2049" stroke="white"/>
<path d="M-158 178.759C-149.847 185.795 -58.3481 225.726 -39.5789 188.116C-16.1175 141.104 312.169 -93.3576 414.999 2.58591" stroke="white"/>
<path d="M-180 177.955C-168.09 185.282 -34.4351 226.868 -7.01845 187.699C27.2524 138.738 506.791 -105.444 656.999 -5.52258" stroke="white"/>
<path d="M-361 259.096C-342.773 269.749 -138.218 330.21 -96.2576 273.263C-43.8073 202.08 690.11 -152.93 919.999 -7.65719" stroke="white"/>
<path d="M279 361.662C297.227 372.316 501.782 432.777 543.742 375.83C596.193 304.646 1330.11 -50.3629 1560 94.9097" stroke="white"/>
<path d="M-361 304.279C-339.713 317.231 -100.827 390.736 -51.8239 321.503C9.4296 234.963 866.526 -196.635 1135 -20.0216" stroke="white"/>
<path d="M279 406.846C300.287 419.798 539.173 493.303 588.176 424.07C649.43 337.53 1506.53 -94.0678 1775 82.5453" stroke="white"/>
<path d="M-239.999 304.279C-218.229 317.231 26.0873 390.736 76.2038 321.503C138.849 234.963 1015.43 -196.635 1290 -20.0216" stroke="white"/>
<path d="M400 406.846C421.77 419.798 666.086 493.303 716.203 424.07C778.848 337.53 1655.42 -94.0678 1930 82.5453" stroke="white"/>
<path d="M-66.999 368.522C-45.2286 383.745 199.087 470.14 249.204 388.767C311.849 287.05 1188.43 -220.235 1463 -12.65" stroke="white"/>
</g>
</svg>