<svg width="159" height="51" viewBox="0 0 159 51" fill="none" xmlns="http://www.w3.org/2000/svg">
<path d="M25.7058 50.8945C39.9027 50.8945 51.4116 39.5014 51.4116 25.4472C51.4116 11.3931 39.9027 0 25.7058 0C11.5089 0 0 11.3931 0 25.4472C0 39.5014 11.5089 50.8945 25.7058 50.8945Z" fill="#FFD600"/>
<path fill-rule="evenodd" clip-rule="evenodd" d="M25.6874 5.62461C36.7531 5.62461 45.7379 14.5186 45.7379 25.4734C45.7379 36.4283 36.7531 45.3223 25.6874 45.3223C25.2379 45.3223 24.873 45.6835 24.873 46.1285C24.873 46.5735 25.2379 46.9347 25.6874 46.9347C37.6521 46.9347 47.3666 37.3183 47.3666 25.4734C47.3666 13.6286 37.6521 4.01221 25.6874 4.01221C25.2379 4.01221 24.873 4.37343 24.873 4.81841C24.873 5.26339 25.2379 5.62461 25.6874 5.62461Z" fill="#AA910C"/>
<path fill-rule="evenodd" clip-rule="evenodd" d="M25.6909 45.3223C14.6239 45.3223 5.63919 36.4283 5.63919 25.4734C5.63919 14.5186 14.6239 5.62461 25.6909 5.62461C26.1404 5.62461 26.5053 5.26339 26.5053 4.81841C26.5053 4.37343 26.1404 4.01221 25.6909 4.01221C13.7249 4.01221 4.01172 13.6286 4.01172 25.4734C4.01172 37.3183 13.7249 46.9347 25.6909 46.9347C26.1404 46.9347 26.5053 46.5735 26.5053 46.1285C26.5053 45.6835 26.1404 45.3223 25.6909 45.3223Z" fill="#AA910C"/>
<path fill-rule="evenodd" clip-rule="evenodd" d="M28.8092 50.7101L28.2831 46.5176C28.2277 46.076 28.5453 45.673 28.9916 45.6181C29.4379 45.5632 29.8435 45.8772 29.9005 46.3188L30.4201 50.4667C29.8891 50.5643 29.3516 50.6456 28.8092 50.7101ZM33.6158 49.666L32.1596 45.412C32.0163 44.9905 32.2443 44.5324 32.6711 44.3897C33.0962 44.2469 33.5588 44.4731 33.7021 44.8944L35.1501 49.1213C34.6468 49.3184 34.1354 49.5001 33.6158 49.666ZM11.544 46.6753L13.808 42.9898C14.0409 42.6096 14.5426 42.4887 14.927 42.7199C15.3114 42.9511 15.4335 43.4474 15.2006 43.8276L12.9301 47.523C12.4577 47.2545 11.9951 46.9715 11.544 46.6753ZM46.8644 39.9046L43.1231 37.1639C42.7631 36.8991 42.6865 36.3939 42.9537 36.0361C43.2208 35.6785 43.7306 35.6031 44.0922 35.8676L47.7505 38.5478C47.4703 39.0099 47.1739 39.4625 46.8644 39.9046ZM1.28418 33.3774L5.6803 31.4188C6.08913 31.2362 6.57288 31.4174 6.75693 31.8231C6.94099 32.2289 6.75856 32.7065 6.3481 32.8892L1.84287 34.8968C1.64089 34.3981 1.45357 33.8916 1.28418 33.3774ZM50.6579 19.2735C50.7882 19.793 50.9038 20.3187 51.0016 20.85L46.6673 21.8618C46.2308 21.964 45.791 21.6952 45.6884 21.2623C45.5842 20.8292 45.8562 20.3946 46.2927 20.2924L50.6579 19.2735ZM4.47336 11.116L8.34664 13.6239C8.72289 13.8676 8.82875 14.3676 8.58281 14.7401C8.33686 15.1124 7.83194 15.217 7.45569 14.9734L3.59869 12.4756C3.87559 12.0125 4.16877 11.5591 4.47336 11.116ZM7.00125 8.00533L10.1513 10.2985C10.5129 10.5621 10.5911 11.0673 10.324 11.4256C10.0585 11.784 9.54706 11.8609 9.18547 11.5973L5.91973 9.21835C6.26666 8.80283 6.62826 8.39827 7.00125 8.00533ZM40.5724 4.68295C41.0154 4.99447 41.4487 5.31938 41.8705 5.65782L39.0543 9.17271C38.7742 9.52132 38.2611 9.57969 37.9093 9.30316C37.5575 9.02663 37.4988 8.51905 37.7774 8.17044L40.5724 4.68295ZM36.2105 2.21274C36.7072 2.43348 37.1959 2.66954 37.6748 2.9193L35.6892 6.60608C35.4775 6.9987 34.984 7.14737 34.5865 6.93808C34.1907 6.72862 34.0409 6.2399 34.2527 5.84728L36.2105 2.21274ZM19.9502 0.64209L21.0969 4.68924C21.2174 5.11766 20.9649 5.56301 20.5317 5.68313C20.0984 5.80342 19.6489 5.55317 19.5283 5.1246L18.3751 1.05277C18.8931 0.899914 19.4176 0.762859 19.9502 0.64209Z" fill="#AA910C"/>
<path d="M15.0566 24.7358C15.0566 22.5171 15.5366 20.5438 16.4966 18.8158C17.4566 17.0665 18.79 15.7118 20.4966 14.7518C22.2246 13.7705 24.1766 13.2798 26.3526 13.2798C29.0193 13.2798 31.302 13.9838 33.2006 15.3918C35.0993 16.7998 36.3686 18.7198 37.0086 21.1518H30.9926C30.5446 20.2131 29.9046 19.4985 29.0726 19.0078C28.262 18.5171 27.334 18.2718 26.2886 18.2718C24.6033 18.2718 23.238 18.8585 22.1926 20.0318C21.1473 21.2051 20.6246 22.7731 20.6246 24.7358C20.6246 26.6985 21.1473 28.2665 22.1926 29.4398C23.238 30.6131 24.6033 31.1998 26.2886 31.1998C27.334 31.1998 28.262 30.9545 29.0726 30.4638C29.9046 29.9731 30.5446 29.2585 30.9926 28.3198H37.0086C36.3686 30.7518 35.0993 32.6718 33.2006 34.0798C31.302 35.4665 29.0193 36.1598 26.3526 36.1598C24.1766 36.1598 22.2246 35.6798 20.4966 34.7198C18.79 33.7385 17.4566 32.3838 16.4966 30.6558C15.5366 28.9278 15.0566 26.9545 15.0566 24.7358Z" fill="black"/>
<path d="M56.5516 18.1438V35.9998H51.0796V33.5678C50.525 34.3571 49.7676 34.9971 48.8076 35.4878C47.869 35.9571 46.8236 36.1918 45.6716 36.1918C44.3063 36.1918 43.101 35.8931 42.0556 35.2958C41.0103 34.6771 40.1996 33.7918 39.6236 32.6398C39.0476 31.4878 38.7596 30.1331 38.7596 28.5758V18.1438H44.1996V27.8398C44.1996 29.0345 44.509 29.9625 45.1276 30.6238C45.7463 31.2851 46.5783 31.6158 47.6236 31.6158C48.6903 31.6158 49.533 31.2851 50.1516 30.6238C50.7703 29.9625 51.0796 29.0345 51.0796 27.8398V18.1438H56.5516Z" fill="black"/>
<path d="M64.5141 21.1198C65.1541 20.1385 65.9541 19.3705 66.9141 18.8158C67.8741 18.2398 68.9408 17.9518 70.1141 17.9518V23.7438H68.6101C67.2448 23.7438 66.2208 24.0425 65.5381 24.6398C64.8555 25.2158 64.5141 26.2398 64.5141 27.7118V35.9998H59.0421V18.1438H64.5141V21.1198Z" fill="black"/>
<path d="M76.7616 21.1198C77.4016 20.1385 78.2016 19.3705 79.1616 18.8158C80.1216 18.2398 81.1883 17.9518 82.3616 17.9518V23.7438H80.8576C79.4923 23.7438 78.4683 24.0425 77.7856 24.6398C77.103 25.2158 76.7616 26.2398 76.7616 27.7118V35.9998H71.2896V18.1438H76.7616V21.1198Z" fill="black"/>
<path d="M100.369 26.7838C100.369 27.2958 100.337 27.8291 100.273 28.3838H87.8891C87.9745 29.4931 88.3265 30.3465 88.9451 30.9438C89.5851 31.5198 90.3638 31.8078 91.2811 31.8078C92.6465 31.8078 93.5958 31.2318 94.1291 30.0798H99.9531C99.6545 31.2531 99.1105 32.3091 98.3211 33.2478C97.5531 34.1865 96.5825 34.9225 95.4091 35.4558C94.2358 35.9891 92.9238 36.2558 91.4731 36.2558C89.7238 36.2558 88.1665 35.8825 86.8011 35.1358C85.4358 34.3891 84.3691 33.3225 83.6011 31.9358C82.8331 30.5491 82.4491 28.9278 82.4491 27.0718C82.4491 25.2158 82.8225 23.5945 83.5691 22.2078C84.3371 20.8211 85.4038 19.7545 86.7691 19.0078C88.1345 18.2611 89.7025 17.8878 91.4731 17.8878C93.2011 17.8878 94.7371 18.2505 96.0811 18.9758C97.4251 19.7011 98.4705 20.7358 99.2171 22.0798C99.9851 23.4238 100.369 24.9918 100.369 26.7838ZM94.7691 25.3438C94.7691 24.4051 94.4491 23.6585 93.8091 23.1038C93.1691 22.5491 92.3691 22.2718 91.4091 22.2718C90.4918 22.2718 89.7131 22.5385 89.0731 23.0718C88.4545 23.6051 88.0705 24.3625 87.9211 25.3438H94.7691Z" fill="black"/>
<path d="M112.696 17.9518C114.787 17.9518 116.451 18.6345 117.688 19.9998C118.947 21.3438 119.576 23.1998 119.576 25.5678V35.9998H114.136V26.3038C114.136 25.1091 113.827 24.1811 113.208 23.5198C112.589 22.8585 111.757 22.5278 110.712 22.5278C109.667 22.5278 108.835 22.8585 108.216 23.5198C107.597 24.1811 107.288 25.1091 107.288 26.3038V35.9998H101.816V18.1438H107.288V20.5118C107.843 19.7225 108.589 19.1038 109.528 18.6558C110.467 18.1865 111.523 17.9518 112.696 17.9518Z" fill="black"/>
<path d="M120.85 27.0718C120.85 25.2158 121.224 23.5945 121.97 22.2078C122.738 20.8211 123.794 19.7545 125.138 19.0078C126.504 18.2611 128.061 17.8878 129.81 17.8878C132.05 17.8878 133.917 18.4745 135.41 19.6478C136.925 20.8211 137.917 22.4745 138.386 24.6078H132.562C132.072 23.2425 131.122 22.5598 129.714 22.5598C128.712 22.5598 127.912 22.9545 127.314 23.7438C126.717 24.5118 126.418 25.6211 126.418 27.0718C126.418 28.5225 126.717 29.6425 127.314 30.4318C127.912 31.1998 128.712 31.5838 129.714 31.5838C131.122 31.5838 132.072 30.9011 132.562 29.5358H138.386C137.917 31.6265 136.925 33.2691 135.41 34.4638C133.896 35.6585 132.029 36.2558 129.81 36.2558C128.061 36.2558 126.504 35.8825 125.138 35.1358C123.794 34.3891 122.738 33.3225 121.97 31.9358C121.224 30.5491 120.85 28.9278 120.85 27.0718Z" fill="black"/>
<path d="M158.113 18.1438L146.913 44.4798H141.025L145.121 35.3918L137.857 18.1438H143.969L148.097 29.3118L152.193 18.1438H158.113Z" fill="black"/>
</svg>