<svg width="18" height="17" viewBox="0 0 18 17" fill="none" xmlns="http://www.w3.org/2000/svg">
<path d="M8.13024 0.533005C8.51342 -0.142371 9.48658 -0.142372 9.86976 0.533003L11.9616 4.22001C12.1041 4.47108 12.3481 4.64834 12.6308 4.70623L16.7838 5.55636C17.5445 5.71208 17.8453 6.63762 17.3214 7.21075L14.4612 10.3396C14.2665 10.5526 14.1733 10.8394 14.2056 11.1263L14.6804 15.3387C14.7674 16.1103 13.9801 16.6823 13.2731 16.3612L9.4136 14.6079C9.15079 14.4885 8.84921 14.4885 8.5864 14.6079L4.72688 16.3612C4.0199 16.6823 3.23259 16.1103 3.31957 15.3387L3.79439 11.1263C3.82672 10.8395 3.73353 10.5526 3.53877 10.3396L0.678637 7.21075C0.154726 6.63762 0.45545 5.71208 1.21618 5.55636L5.36916 4.70623C5.65195 4.64834 5.89593 4.47108 6.03838 4.22001L8.13024 0.533005Z" fill="#FFD600"/>
</svg>