<?xml version="1.0" encoding="utf-8"?>
<!-- Generator: Adobe Illustrator 25.2.3, SVG Export Plug-In . SVG Version: 6.00 Build 0)  -->
<svg version="1.1" id="Layer_1" xmlns="http://www.w3.org/2000/svg" xmlns:xlink="http://www.w3.org/1999/xlink" x="0px" y="0px"
	 viewBox="0 0 10 15" style="enable-background:new 0 0 10 15;" xml:space="preserve">
<style type="text/css">
	.st0{fill:none;}
	.st1{fill:#2B313B;}
</style>
<path class="st0" d="M3.2,4.9c0,0.4,0.1,0.6,0.3,0.9C3.7,5.9,4,6.1,4.4,6.2V3.5C4,3.5,3.7,3.7,3.5,3.9S3.2,4.5,3.2,4.9z"/>
<path class="st0" d="M5.5,8.5v2.8c0.4-0.1,0.7-0.2,0.9-0.5c0.2-0.3,0.4-0.6,0.4-0.9c0-0.4-0.1-0.6-0.3-0.8S5.9,8.6,5.5,8.5z"/>
<path class="st1" d="M8.6,8.1C8.2,7.6,7.8,7.3,7.3,7.1C6.9,7,6.3,6.8,5.5,6.6v-3C5.8,3.6,6,3.8,6.2,4c0.2,0.2,0.3,0.5,0.3,0.8h2.4
	c-0.1-0.9-0.4-1.7-1-2.2C7.3,2.1,6.5,1.8,5.5,1.7V0.4h-1v1.3c-1.1,0.1-1.9,0.4-2.6,1C1.2,3.3,0.8,4,0.8,5c0,0.7,0.2,1.3,0.5,1.7
	c0.3,0.4,0.7,0.7,1.2,0.9C3,7.8,3.7,8,4.4,8.2v3.1c-0.7-0.2-1.1-0.6-1.2-1.4H0.8c0,0.9,0.4,1.7,1,2.2c0.7,0.5,1.5,0.9,2.6,1v1.3h1
	v-1.3c0.7-0.1,1.4-0.2,1.9-0.5c0.6-0.3,1-0.7,1.2-1.2c0.3-0.5,0.4-1,0.4-1.6C9.1,9,8.9,8.5,8.6,8.1z M4.4,6.2C4,6.1,3.7,5.9,3.5,5.7
	C3.3,5.5,3.2,5.2,3.2,4.9c0-0.4,0.1-0.7,0.3-0.9S4,3.5,4.4,3.5V6.2z M6.4,10.8c-0.2,0.3-0.5,0.4-0.9,0.5V8.5c0.4,0.1,0.7,0.3,1,0.5
	s0.3,0.5,0.3,0.8C6.8,10.2,6.6,10.6,6.4,10.8z"/>
</svg>
